<?xml version="1.0" standalone="no"?>
<!DOCTYPE svg PUBLIC "-//W3C//DTD SVG 20010904//EN"
 "http://www.w3.org/TR/2001/REC-SVG-20010904/DTD/svg10.dtd">
<svg version="1.0" xmlns="http://www.w3.org/2000/svg"
 width="456.000000pt" height="456.000000pt" viewBox="0 0 456.000000 456.000000"
 preserveAspectRatio="xMidYMid meet">
<metadata>
Created by potrace 1.14, written by Peter Selinger 2001-2017
</metadata>
<g transform="translate(0.000000,456.000000) scale(0.100000,-0.100000)"
fill="#000000" stroke="none">
<path d="M2295 4442 c-16 -2 -66 -12 -110 -24 -44 -11 -108 -21 -142 -22 -54
-3 -67 -7 -99 -36 -21 -18 -58 -42 -82 -52 -40 -18 -43 -21 -29 -36 17 -16 76
-19 105 -4 22 12 41 4 87 -37 34 -30 38 -38 38 -80 0 -25 4 -51 9 -58 5 -7 12
-27 15 -45 4 -29 21 -50 38 -48 3 0 19 -7 36 -15 45 -24 72 -3 88 69 11 49 17
58 45 70 19 8 46 30 61 50 19 25 35 36 53 36 40 0 116 31 100 41 -7 5 -22 6
-34 3 -14 -4 -21 -1 -21 10 0 16 10 15 53 -1 7 -2 15 0 18 6 3 5 -7 12 -24 16
-27 6 -43 25 -21 25 5 0 17 7 25 16 12 12 14 20 5 35 -13 26 -4 53 16 45 8 -3
17 -1 19 3 9 14 -188 39 -249 33z"/>
<path d="M1910 4393 c-24 -8 -245 -96 -249 -100 -2 -1 -2 -6 2 -9 3 -4 24 1
46 9 25 10 42 13 46 7 3 -6 2 -10 -3 -10 -5 0 -31 -9 -56 -21 -41 -18 -46 -22
-34 -37 11 -13 11 -15 -4 -9 -10 3 -20 2 -23 -3 -4 -6 0 -10 7 -11 7 0 -2 -7
-21 -16 -25 -11 -31 -17 -21 -23 8 -5 23 -2 37 7 13 8 34 13 48 11 14 -3 25
-1 25 4 0 21 98 111 153 140 32 18 61 38 64 45 7 17 2 22 -17 16z"/>
<path d="M1573 4243 c-13 -8 -23 -24 -23 -35 0 -16 4 -18 22 -12 38 12 59 53
32 60 -5 2 -19 -4 -31 -13z"/>
<path d="M3124 4219 c-9 -10 -14 -19 -10 -19 4 0 2 -9 -4 -20 -6 -11 -17 -20
-25 -20 -26 0 -26 -18 0 -44 14 -14 29 -26 33 -27 4 0 16 -2 27 -4 10 -2 25 1
32 6 9 8 24 4 54 -13 37 -20 39 -23 19 -26 -12 -2 -26 2 -31 10 -6 10 -11 10
-20 1 -8 -8 -5 -15 15 -28 31 -21 34 -35 6 -30 -14 3 -22 -3 -26 -21 -4 -13
-15 -29 -25 -35 -11 -5 -19 -15 -19 -22 0 -8 -16 -21 -35 -30 -33 -16 -46 -36
-25 -38 6 -1 15 -3 20 -4 6 -1 17 -3 25 -4 22 -2 55 -38 55 -60 0 -23 -31 -36
-78 -32 -60 5 -63 -10 -22 -91 l37 -73 54 0 c30 1 68 7 84 16 26 12 30 20 31
55 1 23 7 51 13 63 7 12 9 31 6 41 -5 17 -2 20 27 20 22 0 37 7 46 20 12 20
42 28 42 11 0 -10 61 -37 74 -33 9 3 52 -11 94 -31 30 -14 28 -37 -3 -37 -22
0 -37 -18 -17 -21 52 -8 63 -7 58 6 -2 7 0 15 6 17 8 3 7 10 -1 26 -10 19 -9
22 6 23 14 0 13 2 -5 10 -13 5 -33 11 -45 13 -33 6 -131 46 -142 58 -7 8 -2 9
15 4 14 -4 52 -14 85 -22 67 -18 105 -36 130 -60 9 -9 27 -16 41 -16 13 0 24
-6 24 -12 0 -6 11 -16 25 -23 21 -9 25 -9 25 4 0 17 -24 43 -39 43 -5 0 -13 5
-17 12 -4 6 -3 8 3 5 6 -4 16 0 23 8 6 7 17 12 24 9 7 -3 19 2 26 11 10 12 10
15 -4 15 -8 0 -22 13 -30 29 -15 28 -78 87 -191 179 -5 4 -56 38 -111 75 -154
102 -319 151 -360 106z m173 -59 c6 -24 51 -50 88 -50 14 0 25 -4 25 -10 0 -5
-5 -10 -12 -10 -6 0 -1 -11 12 -25 13 -14 21 -27 18 -30 -10 -11 -158 -16
-158 -6 0 6 11 13 25 17 21 5 25 11 21 33 -2 14 -5 29 -5 34 -1 4 -4 6 -8 6
-29 -5 -61 30 -48 51 11 17 37 11 42 -10z m163 -61 c12 -8 12 -10 -5 -8 -33 2
-41 -1 -25 -11 13 -8 12 -10 -2 -10 -20 0 -21 1 -12 24 7 18 22 20 44 5z"/>
<path d="M2635 4193 c-11 -2 -30 -6 -42 -9 -15 -3 -23 -12 -23 -24 0 -16 7
-20 33 -21 17 -1 39 0 47 1 17 2 56 37 49 43 -9 9 -45 14 -64 10z"/>
<path d="M1639 4155 c-15 -8 -42 -17 -60 -20 -34 -6 -68 -30 -57 -40 5 -6 132
34 156 48 6 5 12 12 12 18 0 13 -21 11 -51 -6z"/>
<path d="M1620 4095 c-7 -9 -20 -15 -29 -14 -9 1 -21 1 -27 0 -16 -1 -45 -66
-38 -84 5 -13 12 -13 55 2 27 10 57 26 68 35 18 17 22 17 48 2 15 -9 41 -20
56 -26 32 -11 27 -30 -8 -30 -17 0 -26 -7 -30 -22 -4 -13 -20 -30 -37 -39 -18
-8 -34 -21 -36 -27 -6 -19 26 -14 37 5 9 17 11 17 45 0 39 -18 64 -21 90 -11
20 8 21 24 2 24 -8 0 -18 5 -22 11 -5 8 1 10 19 7 30 -6 40 10 21 32 -25 30
-21 45 13 42 24 -3 34 2 43 17 9 19 7 23 -17 32 -15 6 -37 19 -48 29 -22 20
-125 38 -125 22 0 -7 -11 -7 -32 -1 -18 5 -33 9 -34 9 -1 0 -7 -7 -14 -15z"/>
<path d="M2940 4058 c0 -21 33 -48 57 -48 22 0 38 -25 23 -35 -16 -10 -11 -23
11 -30 12 -4 18 -12 15 -21 -7 -17 -6 -17 38 1 20 8 36 12 36 8 0 -13 20 21
20 35 0 6 -9 12 -21 12 -11 0 -37 11 -57 25 -20 14 -45 25 -54 25 -10 0 -18 7
-18 15 0 8 -4 15 -9 15 -5 0 -16 3 -25 6 -10 4 -16 1 -16 -8z"/>
<path d="M1472 4042 c-12 -12 -22 -29 -22 -38 0 -13 6 -10 25 11 31 33 28 58
-3 27z"/>
<path d="M1408 4003 c-10 -11 -18 -24 -18 -30 0 -6 -10 -14 -22 -17 -22 -7
-22 -7 -3 -16 27 -11 68 28 63 60 -3 22 -3 22 -20 3z"/>
<path d="M2901 3994 c-8 -9 -10 -19 -5 -23 5 -3 14 -15 20 -25 15 -27 25 -29
54 -6 16 13 21 23 14 27 -6 5 -13 16 -17 26 -8 21 -47 22 -66 1z"/>
<path d="M1570 3984 c-8 -3 -23 -22 -32 -44 -17 -42 -40 -55 -33 -19 4 18 1
20 -20 15 -20 -5 -23 -3 -20 14 5 27 -7 25 -34 -6 -14 -16 -20 -32 -16 -44 7
-23 -35 -92 -52 -85 -7 2 -37 -7 -67 -20 -44 -20 -57 -31 -67 -60 -13 -36 -23
-43 -34 -25 -4 6 -18 2 -38 -12 -23 -17 -29 -18 -25 -6 6 14 4 15 -20 2 -15
-8 -31 -14 -35 -14 -5 0 -23 -11 -41 -25 -18 -14 -38 -25 -44 -25 -6 0 -28
-25 -49 -55 -24 -33 -71 -78 -119 -113 -89 -65 -138 -119 -192 -207 -19 -33
-39 -62 -43 -65 -7 -6 -22 -48 -24 -71 -1 -9 -11 -26 -23 -39 -28 -30 -55 -88
-47 -101 4 -6 1 -18 -7 -27 -25 -30 -47 -92 -54 -149 -2 -12 -11 -34 -21 -50
-15 -25 -16 -26 -1 -15 9 8 25 33 34 58 9 24 20 44 24 44 5 0 13 12 19 28 5
15 24 45 41 67 16 22 44 61 61 87 23 35 43 52 76 64 29 11 47 14 54 7 9 -9 15
-82 9 -108 -7 -32 2 -56 24 -65 24 -9 27 -21 17 -71 0 -3 -12 -17 -25 -31 -22
-24 -52 -120 -62 -196 -2 -17 -9 -40 -15 -50 -9 -14 -7 -28 9 -63 11 -24 22
-53 26 -64 3 -11 19 -26 36 -32 23 -8 30 -18 30 -37 0 -14 8 -35 17 -46 10
-11 20 -33 23 -48 4 -18 12 -28 28 -30 12 -2 22 -9 22 -16 0 -18 36 -49 51
-44 8 3 7 8 -3 19 -9 8 -23 31 -33 49 -10 19 -31 52 -47 73 -17 21 -27 44 -24
52 9 24 23 17 40 -19 9 -19 28 -44 41 -54 14 -11 25 -25 25 -30 0 -6 18 -21
40 -33 37 -21 70 -69 70 -101 0 -15 39 -30 120 -48 67 -14 84 -12 123 14 l35
24 70 -18 c39 -10 79 -16 90 -13 19 4 42 -10 81 -48 25 -26 81 -44 131 -44 41
0 45 2 45 25 0 30 32 40 42 13 4 -10 9 -20 13 -23 3 -3 16 -19 28 -37 28 -39
33 -95 17 -180 -12 -62 -11 -64 11 -82 13 -11 24 -28 24 -39 0 -41 19 -70 63
-95 24 -14 66 -48 93 -75 64 -64 121 -99 217 -134 44 -16 92 -35 107 -43 35
-18 78 -69 87 -103 6 -25 52 -104 164 -282 68 -109 87 -132 124 -155 48 -31
86 -76 83 -99 -2 -15 6 -25 33 -38 20 -9 48 -30 61 -47 19 -21 38 -31 71 -36
41 -6 46 -5 52 15 4 14 2 25 -5 30 -11 7 -14 20 -19 78 -1 7 -12 17 -25 23
-19 9 -25 22 -30 60 -5 39 -12 52 -34 63 -26 14 -26 15 -4 16 17 0 22 6 22 28
0 15 -5 33 -12 40 -9 9 -7 12 8 12 22 0 54 29 54 49 0 18 -42 71 -57 71 -17 0
-17 19 0 22 6 0 17 2 22 3 6 2 17 3 26 4 12 1 21 20 31 63 19 79 17 163 -5
207 -17 33 -16 35 8 78 14 24 38 51 53 60 38 25 39 26 41 103 2 74 -8 127 -40
204 -26 60 -26 99 -4 167 23 68 21 107 -5 133 -17 17 -32 21 -88 20 -37 0 -80
-3 -97 -6 -16 -4 -34 -7 -38 -7 -4 -1 -19 -13 -32 -27 -24 -25 -25 -26 -25 -6
0 24 -13 34 -47 38 -17 2 -31 -8 -51 -32 -17 -22 -36 -34 -51 -34 -14 0 -33
-8 -43 -17 -18 -16 -19 -16 -15 7 20 112 20 111 -2 117 -11 3 -23 14 -27 25
-3 11 -25 28 -48 39 -38 16 -47 17 -87 5 -56 -17 -101 -14 -136 10 -16 11 -37
22 -48 25 -16 4 -19 12 -17 44 l3 39 -21 -19 c-12 -11 -26 -30 -31 -42 -11
-30 -103 -45 -194 -31 -18 3 -20 -2 -19 -51 2 -49 1 -52 -14 -37 -9 9 -16 31
-15 51 1 44 -21 47 -36 5 -5 -17 -17 -33 -26 -36 -8 -3 -15 -11 -15 -18 0 -6
-5 -28 -10 -48 -10 -34 -13 -37 -39 -32 -20 4 -35 -1 -59 -21 -25 -21 -38 -25
-61 -20 -31 7 -46 34 -70 123 -14 50 -40 61 -95 38 -33 -14 -36 -14 -37 2 -3
80 -12 158 -17 164 -10 9 -65 -41 -67 -61 -5 -56 -18 -80 -50 -95 -23 -11 -40
-13 -57 -7 -26 10 -67 47 -69 61 -1 9 -4 19 -8 38 -2 4 -2 42 -2 84 1 115 43
184 116 190 35 3 42 8 58 39 16 33 22 37 69 42 58 7 73 0 81 -42 7 -33 34 -64
51 -58 20 7 17 42 -9 100 -40 90 -33 136 30 206 39 43 50 79 37 126 -9 31 13
91 48 130 10 11 21 31 25 45 4 14 16 31 26 38 12 8 19 25 19 46 0 22 9 42 28
62 27 28 86 74 97 74 11 0 5 -19 -11 -35 -12 -11 -14 -19 -6 -27 7 -7 14 -3
22 12 6 12 28 40 48 62 l36 40 -46 -7 c-40 -6 -47 -5 -52 13 -4 10 -3 27 0 37
6 15 3 17 -19 11 -41 -10 -32 7 16 34 84 46 145 98 157 134 14 43 6 60 -26 52
-13 -4 -24 -3 -24 2 0 5 -11 14 -25 20 -14 6 -25 19 -25 27 0 20 -28 75 -38
75 -4 -1 -22 -21 -41 -47 -28 -39 -35 -43 -43 -29 -5 9 -7 25 -3 35 13 41 -50
51 -121 19 -31 -14 -39 -57 -34 -171 2 -27 -5 -47 -25 -73 -17 -22 -30 -54
-33 -80 -3 -26 -11 -45 -20 -49 -8 -3 -16 -4 -18 -2 -4 4 -12 46 -13 69 -1 14
-11 16 -67 13 -73 -4 -104 8 -104 40 1 31 34 97 63 124 14 13 23 29 20 37 -3
8 -1 14 4 14 6 0 23 12 38 26 22 21 26 30 18 43 -8 13 -1 22 44 48 30 18 58
33 62 33 11 0 31 46 31 70 0 19 -9 22 -40 14z m-146 -731 c23 -25 27 -26 51
-13 37 20 41 6 16 -45 -22 -45 -41 -51 -41 -15 0 37 -20 31 -39 -12 -16 -38
-33 -91 -35 -110 -3 -23 -16 -16 -16 9 0 42 26 113 53 142 21 23 21 24 2 16
-11 -4 -29 -8 -40 -8 -22 -1 -45 -19 -45 -36 0 -6 -4 -11 -9 -11 -47 0 21 105
71 109 4 1 18 -11 32 -26z m147 -46 c-16 -16 -26 0 -10 19 9 11 15 12 17 4 2
-6 -1 -17 -7 -23z m-76 -104 c-29 -20 -38 -4 -13 22 19 21 24 22 27 8 2 -9 -5
-22 -14 -30z m-970 -93 c-9 -18 -19 -30 -21 -27 -3 2 3 18 13 35 23 40 29 33
8 -8z"/>
<path d="M1290 3913 c-8 -13 -20 -23 -27 -23 -6 0 -13 -5 -15 -11 -2 -6 -17
-11 -33 -11 -17 1 -41 -4 -55 -9 -27 -10 -90 -97 -90 -123 0 -26 18 -18 35 14
9 17 23 30 31 30 14 0 14 -3 4 -15 -8 -9 -9 -15 -2 -15 6 0 14 5 17 10 3 6 11
10 17 10 5 0 0 -9 -13 -20 l-24 -19 22 -1 c33 0 72 20 79 42 3 10 20 24 37 32
37 15 79 76 53 76 -9 0 -16 11 -18 28 l-3 27 -15 -22z"/>
<path d="M1373 3883 c-18 -7 -16 -33 2 -33 8 0 19 9 25 20 11 21 2 25 -27 13z"/>
<path d="M1530 3853 c-31 -12 -43 -63 -15 -63 8 0 15 7 15 15 0 10 10 15 30
15 28 0 30 2 20 20 -11 20 -23 23 -50 13z"/>
<path d="M3431 3784 c8 -9 14 -23 14 -32 0 -18 41 -47 49 -34 6 9 -54 82 -68
82 -5 0 -2 -7 5 -16z"/>
<path d="M3820 3790 c0 -4 20 -21 45 -39 50 -36 59 -27 19 18 -23 26 -64 39
-64 21z"/>
<path d="M3348 3719 c-10 -5 -18 -18 -17 -27 0 -11 3 -12 6 -4 2 6 9 10 14 6
5 -3 9 1 9 10 0 8 6 17 13 19 6 3 8 6 2 6 -5 0 -18 -4 -27 -10z"/>
<path d="M3836 3701 c-4 -5 -1 -11 6 -13 18 -6 58 3 58 13 0 12 -57 12 -64 0z"/>
<path d="M3500 3671 c-8 -5 -40 -14 -72 -21 -38 -9 -68 -24 -95 -47 -31 -28
-45 -34 -75 -31 -21 2 -38 -1 -39 -7 -1 -5 -10 -27 -20 -48 -17 -32 -18 -44
-9 -78 9 -32 8 -49 -4 -82 -27 -74 -52 -181 -50 -212 2 -16 12 -41 24 -55 47
-58 53 -72 52 -117 0 -26 6 -57 15 -69 8 -13 16 -31 17 -40 3 -20 18 -30 58
-38 15 -4 44 -22 65 -42 40 -38 108 -76 156 -88 22 -5 33 -1 54 20 14 14 45
34 69 44 23 10 65 42 92 69 53 56 82 64 107 29 10 -15 18 -19 23 -12 4 6 15
14 25 17 14 5 20 1 24 -14 6 -20 7 -21 19 -5 15 22 23 9 29 -46 8 -80 15 -98
41 -104 14 -4 29 -15 35 -27 9 -16 13 -17 20 -6 7 12 9 11 10 -1 1 -8 1 -18 0
-23 -1 -4 11 -31 26 -60 23 -45 27 -64 28 -152 0 -93 3 -106 38 -183 20 -46
37 -89 37 -96 0 -7 11 -23 26 -36 21 -21 24 -30 19 -62 -6 -31 -4 -38 9 -38 9
0 16 4 16 9 0 4 14 24 30 42 37 42 70 107 76 151 2 18 5 96 5 173 1 199 -10
302 -55 514 -43 197 -179 507 -307 695 -25 37 -30 40 -80 43 -30 1 -63 3 -74
4 -11 1 -28 1 -39 0 -17 -1 -17 -3 -2 -25 12 -19 13 -27 4 -33 -22 -13 -52
-11 -83 5 -16 9 -54 18 -84 19 -49 2 -57 6 -83 38 -29 35 -50 42 -78 26z"/>
<path d="M3630 3670 c0 -5 5 -10 11 -10 5 0 7 5 4 10 -3 6 -8 10 -11 10 -2 0
-4 -4 -4 -10z"/>
<path d="M1971 3584 c-11 -31 -21 -58 -21 -61 0 -9 73 8 108 24 43 21 42 58
-1 58 -16 0 -34 8 -41 18 -7 9 -15 17 -18 17 -3 0 -15 -25 -27 -56z"/>
<path d="M707 3063 c-4 -3 -7 -11 -7 -17 0 -6 5 -5 12 2 6 6 9 14 7 17 -3 3
-9 2 -12 -2z"/>
<path d="M705 3021 c-3 -5 -1 -12 5 -16 5 -3 10 1 10 9 0 18 -6 21 -15 7z"/>
<path d="M3000 2910 c0 -5 7 -10 16 -10 8 0 12 5 9 10 -3 6 -10 10 -16 10 -5
0 -9 -4 -9 -10z"/>
<path d="M3075 2910 c3 -5 8 -10 11 -10 2 0 4 5 4 10 0 6 -5 10 -11 10 -5 0
-7 -4 -4 -10z"/>
<path d="M716 2894 c-8 -21 1 -34 23 -34 24 0 30 8 24 31 -6 23 -38 25 -47 3z"/>
<path d="M3083 2883 c-21 -8 -15 -22 7 -16 11 3 20 9 20 14 0 10 -8 10 -27 2z"/>
<path d="M3915 2790 c-3 -5 -1 -10 4 -10 6 0 11 5 11 10 0 6 -2 10 -4 10 -3 0
-8 -4 -11 -10z"/>
<path d="M3915 2760 c-3 -5 -1 -10 4 -10 6 0 11 5 11 10 0 6 -2 10 -4 10 -3 0
-8 -4 -11 -10z"/>
<path d="M1588 2663 c-22 -6 -23 -17 -2 -37 8 -9 11 -16 5 -16 -17 0 -13 -27
5 -34 9 -3 16 -6 17 -6 1 0 3 12 3 28 1 15 3 36 5 46 4 20 -6 26 -33 19z"/>
<path d="M1670 2599 c0 -11 4 -18 10 -14 5 3 7 12 3 20 -7 21 -13 19 -13 -6z"/>
<path d="M1685 2570 c-3 -5 -1 -10 4 -10 6 0 11 5 11 10 0 6 -2 10 -4 10 -3 0
-8 -4 -11 -10z"/>
<path d="M1700 2535 c0 -8 6 -15 14 -15 8 0 16 7 20 15 4 10 -1 15 -14 15 -11
0 -20 -7 -20 -15z"/>
<path d="M2002 2538 c5 -15 28 -23 28 -10 0 5 -7 13 -16 16 -10 4 -14 1 -12
-6z"/>
<path d="M2050 2526 c0 -9 -7 -16 -15 -16 -18 0 -20 -16 -2 -23 15 -6 40 40
26 49 -5 3 -9 -2 -9 -10z"/>
<path d="M2080 2530 c0 -5 5 -10 10 -10 6 0 10 5 10 10 0 6 -4 10 -10 10 -5 0
-10 -4 -10 -10z"/>
<path d="M1937 2522 c-19 -2 -27 -9 -25 -18 2 -8 6 -15 11 -15 4 1 18 1 32 1
15 0 25 6 25 14 0 19 -9 23 -43 18z"/>
<path d="M1533 2494 c-30 -11 -44 -23 -52 -45 -10 -30 4 -44 15 -14 7 18 63
37 95 31 13 -3 27 -5 32 -5 4 -1 7 -7 7 -15 0 -16 48 -9 88 13 24 13 29 31 10
32 -7 0 -22 2 -33 4 -69 13 -124 13 -162 -1z"/>
<path d="M1803 2495 c-34 -15 -41 -33 -21 -53 17 -17 34 -15 73 11 40 26 44
42 13 51 -29 7 -27 8 -65 -9z"/>
<path d="M2070 2493 c0 -8 4 -12 8 -9 5 3 18 -2 30 -10 19 -13 21 -22 17 -69
-2 -32 0 -55 5 -55 6 0 10 6 11 13 0 6 2 33 3 59 2 38 -1 51 -19 66 -25 22
-55 25 -55 5z"/>
<path d="M1748 2433 c-27 -7 -22 -23 7 -23 16 0 25 6 25 15 0 15 -2 16 -32 8z"/>
<path d="M193 2414 c-3 -9 8 -29 27 -50 19 -18 31 -36 27 -40 -9 -10 -158 25
-200 47 l-38 20 3 -73 3 -73 28 3 c33 4 217 -36 217 -48 0 -4 -11 -15 -25 -24
-38 -25 -32 -53 13 -65 31 -9 39 -8 49 6 7 9 11 26 8 37 -3 12 -7 70 -10 131
-3 68 -10 114 -18 121 -20 20 -77 25 -84 8z"/>
<path d="M2185 2420 c3 -5 10 -10 16 -10 5 0 9 5 9 10 0 6 -7 10 -16 10 -8 0
-12 -4 -9 -10z"/>
<path d="M1658 2392 c-10 -2 -18 -7 -18 -12 0 -18 20 -20 47 -6 16 8 26 16 23
16 -21 5 -37 6 -52 2z"/>
<path d="M2587 2118 c-11 -9 -16 -20 -11 -31 7 -20 14 -21 37 -4 15 10 16 15
5 30 -11 15 -16 16 -31 5z"/>
<path d="M45 1984 c7 -28 22 -85 31 -113 4 -11 8 -11 22 3 11 9 36 16 61 16
38 0 42 -2 39 -22 -2 -18 -11 -24 -38 -26 -48 -5 -69 -26 -64 -64 6 -52 54
-89 68 -53 3 9 18 15 35 15 22 0 32 6 37 22 l6 21 17 -21 c10 -13 29 -23 50
-24 27 -2 38 3 54 25 20 25 20 31 9 90 -7 34 -20 83 -28 109 -14 43 -18 47
-35 37 -21 -11 -206 -6 -247 6 -21 7 -23 5 -17 -21z m273 -116 c-4 -28 -39
-35 -62 -13 -25 26 -19 35 25 35 36 0 40 -2 37 -22z"/>
<path d="M4305 1988 c-39 -108 -43 -133 -21 -125 7 3 30 -6 50 -20 34 -22 37
-28 30 -56 -3 -18 -7 -33 -9 -35 -7 -8 -75 42 -80 59 -11 33 -22 21 -44 -43
-26 -76 -26 -78 -1 -78 24 0 162 -90 197 -128 13 -14 25 -23 27 -21 2 2 12 29
23 61 18 50 18 81 -1 79 -21 -3 -34 2 -59 22 -26 20 -27 24 -16 55 6 17 14 32
19 32 4 0 26 -18 49 -40 27 -26 43 -36 46 -28 41 114 43 128 15 128 -26 0
-200 119 -200 136 0 17 -19 18 -25 2z"/>
<path d="M431 1618 c-5 -13 -32 -45 -59 -72 -47 -46 -53 -48 -106 -49 -31 -1
-56 -5 -56 -9 0 -5 14 -36 31 -69 l30 -61 20 21 c23 25 67 30 148 16 43 -7 51
-12 51 -35 0 -24 34 -43 60 -35 24 8 37 50 20 70 -13 15 -53 30 -115 40 l-40
7 32 29 c19 16 39 26 48 23 10 -4 15 0 15 10 0 18 -57 136 -65 136 -3 0 -9
-10 -14 -22z"/>
<path d="M4106 1478 c-36 -62 -68 -120 -71 -129 -6 -15 12 -40 47 -68 16 -12
19 -10 27 10 5 15 5 31 -1 42 -5 10 -8 28 -6 40 3 18 12 12 71 -47 37 -37 74
-81 83 -98 8 -16 17 -28 19 -26 1 1 17 27 34 57 32 53 34 81 9 81 -8 0 -46 33
-87 74 -55 55 -70 76 -60 82 8 5 24 7 36 6 13 -2 26 4 32 16 9 16 6 25 -16 46
-14 14 -32 26 -39 26 -7 0 -42 -51 -78 -112z"/>
<path d="M3955 1192 c-30 -7 -46 -21 -108 -92 -57 -65 -69 -90 -43 -90 15 0
131 -177 131 -200 0 -27 22 -16 64 32 45 50 51 68 23 68 -11 0 -27 16 -40 39
-19 33 -20 40 -8 50 12 10 21 5 47 -24 37 -40 59 -40 97 1 28 32 31 79 3 71
-12 -3 -27 4 -40 19 -12 13 -29 24 -39 24 -15 0 -18 6 -14 30 6 45 -31 81 -73
72z m-10 -102 c13 -21 13 -49 1 -59 -9 -8 -18 -3 -35 19 -12 17 -19 35 -16 40
8 13 42 13 50 0z"/>
<path d="M744 1117 c-8 -22 -192 -115 -216 -110 -33 8 -27 -17 18 -66 44 -49
69 -60 69 -32 0 15 42 40 68 41 14 0 16 -5 11 -26 -9 -36 12 -47 50 -27 50 25
58 34 45 49 -6 8 -20 14 -30 14 -34 0 -30 19 7 35 34 14 39 14 54 0 15 -13 16
-21 7 -45 -17 -44 2 -59 48 -37 19 9 35 23 35 31 0 15 -43 70 -114 144 -38 40
-46 44 -52 29z"/>
<path d="M3670 902 c-32 -5 -77 -38 -85 -61 -13 -43 -12 -61 10 -159 16 -72
21 -112 15 -132 -12 -42 4 -46 45 -13 41 33 42 36 15 63 -27 27 -25 46 5 66
31 20 38 14 39 -31 1 -19 4 -35 9 -35 14 0 107 74 107 86 0 7 -6 14 -13 17 -7
3 -30 45 -50 93 -38 93 -56 112 -97 106z m-4 -128 c17 -45 17 -47 -1 -60 -29
-21 -33 -18 -40 36 -11 82 13 96 41 24z"/>
<path d="M940 829 c-44 -18 -92 -61 -106 -95 -41 -97 94 -190 216 -149 57 19
120 82 120 120 0 67 -68 126 -153 132 -29 1 -63 -2 -77 -8z m147 -66 c8 -21
-64 -88 -125 -115 -43 -20 -62 -17 -62 7 0 25 136 123 173 125 4 0 11 -8 14
-17z"/>
<path d="M3300 654 c-111 -59 -114 -63 -96 -83 18 -20 57 -209 49 -239 -3 -12
-3 -22 0 -22 8 0 200 101 211 111 13 11 10 68 -5 85 -16 19 -34 3 -49 -42 -10
-29 -35 -54 -53 -54 -9 0 -19 79 -12 90 4 7 13 7 27 -1 32 -17 44 2 29 51 -13
44 -31 51 -46 19 -14 -31 -27 -29 -36 5 -14 51 32 76 72 40 10 -9 23 -13 28
-9 24 14 5 95 -22 95 -7 -1 -50 -21 -97 -46z"/>
<path d="M1311 637 c-8 -21 -65 -88 -133 -159 -10 -10 -25 -18 -34 -18 -28 0
-9 -24 42 -52 59 -32 87 -36 82 -10 -4 24 37 74 58 70 26 -5 27 -21 4 -48 -11
-13 -20 -33 -20 -45 0 -38 52 -70 96 -59 18 5 23 11 19 25 -3 10 1 28 9 41 18
27 18 38 3 56 -8 11 -5 12 17 6 21 -5 33 -1 52 17 52 49 25 93 -97 154 l-89
45 -9 -23z m104 -117 c-18 -20 -50 -27 -59 -12 -3 5 7 21 21 36 23 25 27 26
41 12 14 -14 14 -17 -3 -36z"/>
<path d="M3029 607 c-20 -51 11 -71 71 -44 l45 20 -35 8 c-51 12 -80 18 -81
16z"/>
<path d="M2830 465 c-30 -8 -73 -17 -95 -20 -22 -4 -41 -8 -43 -10 -2 -2 -5
-60 -6 -130 -2 -77 -8 -131 -15 -138 -27 -27 -7 -31 74 -13 6 2 38 9 72 16 74
15 91 26 97 63 11 63 -24 70 -62 11 -13 -20 -30 -34 -42 -34 -17 0 -20 7 -20
45 0 46 13 58 37 34 22 -22 43 -2 43 40 0 48 -15 60 -39 32 -24 -27 -38 -27
-35 2 1 12 3 29 3 38 1 10 12 19 27 22 19 3 29 -2 41 -19 27 -41 50 -31 57 26
2 22 -2 33 -15 40 -10 6 -19 10 -21 9 -2 0 -28 -7 -58 -14z"/>
<path d="M1831 419 c-12 -19 -19 -38 -18 -44 7 -19 40 -17 68 4 16 12 34 19
38 16 12 -7 -73 -176 -100 -201 -20 -18 -20 -18 33 -31 78 -18 100 -17 96 6
-4 23 82 201 97 201 6 0 16 -14 22 -31 8 -21 17 -30 30 -27 21 4 57 68 45 80
-7 7 -109 28 -259 55 -28 5 -34 1 -52 -28z"/>
<path d="M2450 402 c-11 -2 -16 -14 -16 -35 0 -68 -10 -84 -53 -85 l-39 -2 10
38 c5 20 16 44 24 53 8 8 14 19 14 22 0 4 -32 7 -71 7 -67 0 -71 -1 -66 -20 7
-26 -47 -230 -64 -240 -6 -4 -9 -12 -5 -18 5 -9 54 -10 125 -3 8 1 11 8 8 21
-3 11 0 37 5 59 10 38 12 40 48 39 l38 0 -10 -37 c-6 -20 -17 -44 -26 -54 -22
-25 -9 -31 60 -29 72 3 78 6 71 32 -7 27 36 201 55 223 8 9 12 20 8 24 -7 8
-87 11 -116 5z"/>
</g>
</svg>
